<svg xmlns="http://www.w3.org/2000/svg" viewBox="0 0 512 512" fill="none">
  <rect width="512" height="512" fill="#00A884" />
  <g transform="translate(64,64) scale(0.75)">
    <path
      fill="#fff"
      fill-rule="evenodd"
      d="M256 96c-88 0-160 71-160 159 0 28 7 55 21 79l-22 78 81-21c23 12 49 19 80 19 88 0 160-71 160-159S344 96 256 96Zm0 290c-26 0-52-7-74-20l-5-3-48 13 13-46-3-5c-14-23-22-49-22-75 0-77 62-139 139-139s139 62 139 139-62 139-139 139Zm77-103c-4-2-25-12-29-14s-7-2-9 2-11 14-13 17c-2 2-5 3-9 1s-18-7-34-22c-13-11-22-25-24-29s0-6 2-8c2-2 4-4 5-7 1-2 2-4 1-7s-9-21-12-29c-3-7-6-7-9-7h-7c-3 0-7 1-11 5-4 4-15 14-15 35s15 41 17 44 30 46 73 64c10 4 18 7 24 9 10 3 19 3 26 2 8-1 25-10 28-20s3-19 2-20-5-2-9-4Z"
      clip-rule="evenodd"
    />
  </g>
</svg>
